<svg width="1672" height="941" viewBox="0 0 1672 941" fill="none" xmlns="http://www.w3.org/2000/svg">
<g clip-path="url(#clip0_280_992)">
<path d="M917.983 467.55C921.616 465.649 922.612 464.31 925.837 467.219C927.984 479.394 937.871 475.737 939.896 491.155C941.447 502.976 930.94 517.704 931.797 521.246C934.997 523.245 938.573 524.09 941.953 525.675C962.339 535.232 952.077 555.59 950.574 570.74C950.28 573.7 951.064 576.704 951.113 579.662C951.285 588.734 949.652 597.017 952.942 605.899C954.273 609.497 956.224 612.696 959.865 614.331C976.765 621.932 1040.07 573.461 1054.04 562.838C1058.76 559.244 1068.39 549.891 1073.3 548.112L1075.39 549.867C1077.81 549.701 1088.7 540.01 1091.11 538.051C1092.55 536.889 1091.72 533.84 1091.44 531.97C1092.34 529.875 1092.6 529.724 1094.6 528.586C1096.87 528.753 1097.29 528.866 1099.48 528.387C1105.01 523.313 1114.54 514.271 1118.65 508.131C1120.76 504.964 1123.19 498.416 1125.6 494.549C1129.26 488.789 1135.07 484.729 1141.74 483.27C1144.5 482.648 1155.6 487.431 1158.58 489.351C1176.04 500.593 1163.37 533.962 1159.46 550.039C1158.72 553.125 1157 557.787 1157.83 560.879C1158.15 562.058 1158.84 562.148 1159.84 562.706C1164.62 560.205 1182.98 543.536 1188.89 539.176C1196.37 533.663 1202.9 528.798 1211.64 524.073C1215.14 522.177 1219.86 517.849 1223.93 516.428C1230.4 520.073 1241.34 514.694 1253.11 523.818C1274.23 540.203 1275.79 582.646 1299.56 594.242C1316.3 602.412 1343.07 606.974 1361.46 611.256C1383.11 616.298 1405.49 620.636 1426.33 628.046C1433.14 630.462 1441.9 632.309 1448.17 636.122C1450.9 637.785 1450.59 638.804 1451.09 641.619C1449.59 645.783 1448.51 643.61 1445.95 646.287C1444.07 648.255 1443.79 649.656 1441.36 651.772C1438.26 651.954 1438.05 649.414 1435.85 649.506C1428.77 649.801 1425.81 653.857 1418.2 650.776C1412.63 648.527 1406.63 652.552 1400.49 651.789C1392.1 650.747 1383.78 648.474 1375.43 647.029C1347.37 642.166 1309.07 637.673 1284.53 623.372C1277.24 619.119 1267.11 613.486 1264.89 605.014C1264.25 601.588 1256.64 596.712 1254.78 592.737C1251.66 586.056 1251.23 578.02 1247.92 571.403C1247.05 569.664 1243.49 567.549 1243.26 565.988C1243.04 564.417 1243.86 562.411 1243.21 560.865C1242.08 558.215 1238.5 556.195 1235.88 555.719C1219.77 552.799 1171.85 599.795 1160.77 613.056C1154.81 620.2 1144.67 638.469 1137.96 642.819C1136.16 643.983 1134.8 644.064 1132.75 643.648C1130.36 641.638 1129.42 640.484 1126.23 640.354L1125.76 640.652C1117.93 645.468 1111.09 633.289 1109.08 627.524C1105.41 617.024 1112.25 599.474 1114.05 588.571C1115.5 579.83 1118.3 570 1119.57 561.066C1119.69 560.389 1121.49 544.524 1121.76 543.864L1119.99 542.582C1117.44 543.441 1113.32 546.332 1111.28 548.413C1107.22 552.586 1107.36 553.555 1107.1 557.572C1106.81 561.99 1090.61 570.125 1088.82 574.693C1085.68 582.686 1073.58 584.31 1067.04 589.967C1063.92 591.963 1063.16 597.508 1060.25 599.545C1043.14 611.5 1026.54 624.279 1009.14 635.827C1004.07 639.194 996.546 641.75 991.117 644.767C989.092 645.894 985.679 647.418 983.394 648.069C974.659 649.014 976.576 646.726 970.266 652.242C966.461 652.994 960.094 651.062 956.804 650.172C934.81 644.213 926.898 629.669 919.779 609.706C917.599 603.597 917.787 595.97 915.763 591.74C913.461 589.703 914.603 590.196 911.403 589.98C895.067 600.094 878.289 618.634 861.684 629.446C859.504 630.862 855.422 638.262 854.353 638.52C848.442 639.949 839.339 642.521 835.478 647.488C835.314 650.121 835.444 650.474 834.016 652.549C827.15 657.365 826.227 650.725 820.022 659.235C814.314 660.875 810.183 661.307 805.158 665.664C801.71 668.654 797.065 668.684 793.899 670.027C784.116 674.179 771.245 666.065 764.771 666.592C758.589 663.387 748.162 646.537 745.744 639.724C745.037 637.732 747.692 634.389 747.611 633.627C746.879 626.711 745.892 620.792 748.319 614.01C758.442 574.613 783.888 535.626 813.994 508.339C817.916 504.783 819.492 499.096 823.027 496.974C823.574 497.175 826.258 498.102 826.554 497.884C829.983 495.263 835.485 491.345 838.914 489.148C855.103 478.791 882.119 465.835 901.647 465.768C904.807 464.999 914.138 467.528 917.983 467.55ZM903.223 498.677C902.072 498.119 896.772 497.768 895.254 498.244L894.65 498.455C885.686 501.486 876.321 502.226 866.974 507.18C832.464 525.482 804.767 554.177 787.017 588.903C780.779 601.245 773.477 619.748 775.232 633.411C776.203 640.972 789.474 637.116 793.572 634.771C801.095 630.82 810.208 625.867 817.051 620.796C826.17 614.037 835.33 607.467 844.792 601.146C848.939 598.378 852.842 593.479 856.94 590.525C861.594 586.779 867.382 583.853 871.913 579.67C882.29 570.088 892.682 560.52 903.165 551.047C906.594 547.942 909.778 543.966 913.272 540.924C913.77 537.837 915.346 532.8 914.399 530.59L913.688 530.188C907.19 526.427 908.848 523.704 904.284 520.994C902.504 515.259 910.276 502.105 903.223 498.677Z" fill="black"/>
<path d="M479.918 688.628C467.053 695.712 463.98 693.947 450.124 697.384C448.395 697.812 437.155 702.99 434.292 704.128C432.886 703.382 432.59 703.257 431.079 702.755C411.406 709.474 387.315 717.413 369.852 728.27C363.296 732.346 357.566 739.006 351.33 742.873C345.763 740.551 330.866 729.676 326.798 724.826C326.828 724.16 326.831 723.459 326.926 722.799C327.72 717.246 326.003 712.159 326.454 706.716C326.958 700.627 336.466 698.298 340.475 694.702C347.768 688.16 354.258 678.269 359.481 670.009C363.969 662.912 367.054 655.11 371.321 648.066C373.446 644.559 376.525 641.596 378.469 637.971C382.496 630.467 405.602 583.417 405.937 577.853C406.149 574.35 407.487 572.957 409.822 570.564C410.815 569.547 411.743 568.611 412.379 567.325C415.429 561.164 417.482 554.163 420.318 547.814C428.597 529.288 437.816 509.501 445.54 490.87C447.144 487.001 447.085 480.629 449.448 477.405C450.178 476.41 452.361 475.762 452.964 474.751C455.956 469.739 457.523 461.217 459.609 455.545C462.101 448.776 465.487 442.231 468.299 435.574C470.391 430.622 472.003 425.441 474.275 420.572C476.44 415.929 480.319 411.844 482.942 407.361C482.967 405.893 482.589 404.805 482.103 403.425C480.785 399.679 491.373 389.461 491.448 384.039C491.456 383.476 491.471 382.912 491.52 382.35C491.839 378.668 495.715 376.136 498.349 373.557C499.548 365.983 504.524 355.02 506.525 347.254C507.71 342.652 512.314 340.556 513.527 334.288C508.913 323.72 516.409 326.654 518.285 322.568C521.797 314.922 526.735 301.397 530.023 293.629L546.202 255.418C548.742 249.52 555.137 240.126 553.086 234.158C551.975 230.929 558.584 227.393 559.455 224.535C562.672 213.975 565.555 203.574 570.003 193.428C569.614 194.313 568.779 190.137 568.872 188.881C577.217 179.704 582.859 178.522 593.442 184.065C606.283 190.79 609.975 202.404 603.817 215.333C596.42 230.867 589.409 246.944 582.143 262.541C580.003 267.132 576.44 271.267 576.97 276.165C576.987 278.05 569.417 288.02 568.128 290.873L534.698 364.713C531.096 372.766 536.43 378.631 525.243 386.349C523.009 387.89 517.236 401.647 517.023 405.152C521.487 412.175 512.303 419.082 509.476 425.556C507.483 430.118 507.417 428.564 508.684 433.389C507.595 437.246 506.062 437.987 503.764 440.924C498.751 447.332 502.397 452.794 495.196 459.426C495.72 464.942 488.847 473.201 487.281 477.36C487.91 483.949 481.385 481.719 484.437 490.374C483.012 494.964 481.173 494.36 477.666 497.383C479.998 505.908 472.553 504.823 471.933 510.861L473.061 512.235C472.571 518.245 457.158 542.733 453.224 549.254C452.026 551.239 452.488 558.406 451.813 560.901C451.098 563.541 446.718 567.121 445.481 569.622C443.236 574.163 441.347 581.238 439.052 585.639C436.913 589.741 430.682 594.465 428.28 598.876C425.05 604.808 426.283 602.492 427.461 608C426.819 613.238 409.783 622.788 411.217 632.457L414.343 634.423C414.519 634.995 414.694 635.567 414.87 636.139C412.426 639.203 406.148 653.79 404.297 655.502C401.115 658.445 393.944 662.71 392.975 667.255C394.319 668.172 395.495 669.008 396.795 669.988C396.48 671.684 396.387 672.427 396.3 674.15C398.959 675.428 448.612 661.916 455.529 660.303C504.164 649.246 553.299 640.512 602.765 634.13C611.023 632.992 617.996 629.797 625.413 630.211C637.887 631.711 653.349 625.677 665.465 625.343C673.961 625.11 697.724 621.995 704.722 624.225C723.678 630.264 719.059 653.717 702.051 659.562C699.539 660.425 696.494 662.245 693.684 661.168C686.984 653.743 686.498 662.845 676.841 659.977C676.507 659.888 676.173 659.799 675.84 659.71C666.29 660.482 666.526 669.15 657.57 660.569C657.377 660.385 647.826 662.391 646.119 662.617C643.161 663.012 637.564 663.061 634.369 663.523C607.753 666.353 578.569 671.894 552.533 675.596C539.458 677.455 489.074 690.501 479.918 688.628Z" fill="black"/>
<path d="M487.281 477.36C484.824 475.651 483.41 474.695 482.585 472.081C488.264 467.767 487.773 465.972 485.963 459.373L486.714 458.292L488.315 459.922C491.38 459.335 492.143 459.351 495.196 459.426C495.72 464.942 488.847 473.201 487.281 477.36Z" fill="black"/>
<path d="M471.933 510.861L470.417 509.98L470.19 508.71C471.857 507.103 472.664 506.286 474.076 504.458L473.838 503.504C472.667 504.092 471.676 504.786 470.419 504.691C473.37 501.115 472.541 499.369 474.788 497.271L477.666 497.383C479.998 505.908 472.553 504.823 471.933 510.861Z" fill="black"/>
</g>
<defs>
<clipPath id="clip0_280_992">
<rect width="1672" height="941" fill="white"/>
</clipPath>
</defs>
</svg>
